#define dash_width 16
#define dash_height 2
static char dash_bits[] = {
  0x3E, 0x3E, 0x3E, 0x3E, };
