#define dot_width 16
#define dot_height 2
static char dot_bits[] = {
  0x18, 0x18, 0x18, 0x18, };
