#define plus_width 16
#define plus_height 16
static unsigned char plus_bits[] = {
   0xff, 0x7f, 0xff, 0x7f, 0x03, 0x60, 0xc3, 0x61, 0xc3, 0x61, 0xc3, 0x61,
   0xfb, 0x6f, 0xfb, 0x6f, 0xfb, 0x6f, 0xc3, 0x61, 0xc3, 0x61, 0xc3, 0x61,
   0x03, 0x60, 0xff, 0x7f, 0xff, 0x7f, 0x00, 0x00};
