#define minusplus_width 16
#define minusplus_height 16
static unsigned char minusplus_bits[] = {
   0xff, 0x7f, 0xff, 0x7f, 0x03, 0x60, 0x03, 0x60, 0x03, 0x60, 0x03, 0x60,
   0xfb, 0x6f, 0xfb, 0x6f, 0xfb, 0x6f, 0x03, 0x60, 0x03, 0x60, 0x03, 0x60,
   0x03, 0x60, 0xff, 0x7f, 0xff, 0x7f, 0x00, 0x00};
