#define dashdot_width 16
#define dashdot_height 2
static char dashdot_bits[] = {
  0xFC, 0x30, 0xFC, 0x30, };
