#define dashdotdot_width 16
#define dashdotdot_height 2
static char dashdotdot_bits[] = {
  0x7E, 0x66, 0x7E, 0x66, };
